<svg width="80" height="80" viewBox="0 0 80 80" fill="none" xmlns="http://www.w3.org/2000/svg">
<circle cx="40" cy="40" r="40" fill="#08299B"/>
<path d="M29.4133 22.0953L29.7867 22.0673C29.9218 22.0543 30.0511 22.0117 30.1627 21.9437L30.16 21.946C30.5173 23.024 30.9547 24.158 31.5013 25.3457C32.2027 26.8997 32.8933 28.176 33.6667 29.408L33.56 29.2213C33.496 30.0707 33.4187 30.9433 33.3173 31.788C33.2729 32.2863 33.1574 32.7778 32.9733 33.251L32.9867 33.209C32.9547 33.2207 32.9093 38.0623 32.9093 38.0623C32.9103 39.5646 33.489 41.0229 34.5522 42.2025C35.6154 43.3821 37.1013 44.2144 38.7707 44.5653L38.824 44.5747C38.8981 44.4062 39.0287 44.2613 39.1986 44.1589C39.3684 44.0564 39.5697 44.0013 39.776 44.0007H41.3067C41.5111 44.0031 41.7101 44.0581 41.879 44.159C42.0478 44.2598 42.179 44.402 42.256 44.5677L42.2587 44.5747C43.9422 44.2341 45.4451 43.4063 46.5239 42.2252C47.6027 41.0441 48.1942 39.5789 48.2027 38.067C48.2027 38.067 48.1093 33.244 48.0613 33.2113C47.9024 32.7603 47.7935 32.2969 47.736 31.8277L47.7333 31.7927C47.64 30.9433 47.5787 30.0917 47.4907 29.226C48.1493 28.1853 48.84 26.9113 49.448 25.5977L49.5493 25.3503C50.096 24.1627 50.52 23.031 50.8907 21.9507C51.0002 22.0187 51.1278 22.0613 51.2613 22.0743H51.264L51.64 22.1023C52.0933 22.1443 52.4933 21.8177 52.5307 21.3113L52.936 16.8057V16.801C52.9358 16.6197 52.8601 16.4446 52.7232 16.3085C52.5863 16.1724 52.3975 16.0846 52.192 16.0613H52.1413C52.4965 13.7151 52.2765 11.3297 51.496 9.06366L51.5307 9.18266C50.7785 7.72133 49.6346 6.44035 48.1959 5.44839C46.7572 4.45644 45.0663 3.78281 43.2667 3.48466L43.1973 3.47532C42.3248 3.32225 41.4389 3.23482 40.5493 3.21399H40.4933C39.5628 3.22857 38.6359 3.32077 37.7253 3.48932L37.8213 3.47532C36.0226 3.76746 34.3301 4.43236 32.8853 5.41437C31.4406 6.39638 30.2857 7.66693 29.5173 9.11966L29.488 9.18266C28.7203 11.4399 28.5156 13.8152 28.888 16.1477L28.8773 16.0613C28.6713 16.0808 28.4807 16.1661 28.3419 16.3008C28.2032 16.4356 28.1261 16.6103 28.1253 16.7917V16.808L28.5307 21.3137C28.568 21.8317 28.9733 22.1443 29.4107 22.1023L29.4133 22.0953Z" fill="white"/>
<path d="M69.1093 51.9153C68.9227 44.8219 68.112 43.2166 67.6747 42.1293C67.5013 41.6929 67.36 38.7436 61.792 36.8303C58.3787 35.6543 53.9733 35.6309 50.2453 34.2519V38.0879C50.2415 40.0545 49.4561 41.9587 48.0238 43.4742C46.5915 44.9896 44.6015 46.0221 42.3947 46.3946L42.3333 46.4039C42.2934 46.6109 42.1716 46.799 41.9894 46.9355C41.8071 47.0719 41.5759 47.1481 41.336 47.1506H41.288V50.0439C41.288 51.4017 41.9044 52.7038 43.0016 53.6639C44.0988 54.6239 45.587 55.1633 47.1387 55.1633C48.6904 55.1633 50.1785 54.6239 51.2757 53.6639C52.3729 52.7038 52.9893 51.4017 52.9893 50.0439V48.0233C52.184 47.9199 51.4498 47.5619 50.9257 47.017C50.4017 46.472 50.124 45.7779 50.1453 45.0659C50.1666 44.3539 50.4854 43.6735 51.0413 43.1532C51.5973 42.633 52.3518 42.3091 53.1623 42.2427C53.9727 42.1764 54.7828 42.3723 55.4394 42.7933C56.0959 43.2143 56.5534 43.8312 56.7252 44.5274C56.897 45.2235 56.7713 45.9507 56.3718 46.5712C55.9724 47.1918 55.3268 47.6627 54.5573 47.8949L54.5333 47.9019V50.1536C54.5333 51.8703 53.754 53.5166 52.3667 54.7305C50.9794 55.9443 49.0979 56.6263 47.136 56.6263C45.1741 56.6263 43.2926 55.9443 41.9053 54.7305C40.518 53.5166 39.7387 51.8703 39.7387 50.1536V50.0369V50.0416V47.1226C39.5103 47.109 39.2939 47.0283 39.1245 46.8936C38.9551 46.759 38.8426 46.5782 38.8053 46.3806V46.3759C36.5961 46.0073 34.6021 44.9779 33.165 43.4642C31.7279 41.9504 30.9371 40.0465 30.928 38.0786V34.2123C27.184 35.6193 22.752 35.6473 19.32 36.8256C13.736 38.7366 13.608 41.6789 13.4373 42.1223C13.0107 43.2143 12.1893 44.8126 12.0027 51.9106C11.9707 52.8439 12.0027 54.2743 15.2187 55.5249C22.2213 57.9283 31.2427 58.6749 40.136 59.2116H40.9893C49.9013 58.6796 58.9093 57.9353 65.9067 55.5249C69.1093 54.2813 69.1387 52.8579 69.1093 51.9153ZM29.96 49.0219H26.6373V51.9409H24.264V49.0313H20.9413V46.9546H24.264V44.0473H26.6373V46.9546H29.96V49.0219Z" fill="white"/>
<path d="M55.2667 45.1183C55.2663 44.7019 55.077 44.3003 54.7403 44.0061C54.4036 43.7118 53.9472 43.5466 53.4713 43.5468C52.9955 43.5469 52.5392 43.7124 52.2027 44.0069C51.8663 44.3014 51.6773 44.7007 51.6773 45.1171C51.6773 45.5335 51.8663 45.9328 52.2027 46.2273C52.5392 46.5218 52.9955 46.6873 53.4713 46.6874C53.9472 46.6876 54.4036 46.5224 54.7403 46.2281C55.077 45.9338 55.2663 45.5346 55.2667 45.1183Z" fill="white"/>
</svg>
