<svg width="80" height="80" viewBox="0 0 80 80" fill="none" xmlns="http://www.w3.org/2000/svg">
<circle cx="40" cy="40" r="40" fill="#08299B"/>
<path fill-rule="evenodd" clip-rule="evenodd" d="M26 7.86658C24.7623 7.86658 23.5753 8.35824 22.7002 9.23341C21.825 10.1086 21.3333 11.2956 21.3333 12.5332V49.8666C21.3333 51.1043 21.825 52.2912 22.7002 53.1664C23.5753 54.0416 24.7623 54.5332 26 54.5332H54C55.2377 54.5332 56.4247 54.0416 57.2998 53.1664C58.175 52.2912 58.6667 51.1043 58.6667 49.8666V18.1659C58.6664 16.9283 58.1746 15.7415 57.2993 14.8666L51.6667 9.23391C50.7917 8.35868 49.6049 7.86684 48.3673 7.86658H26ZM26 12.5332H48.3673L54 18.1659V49.8666H26V12.5332ZM49.8887 28.3836C50.1115 28.1683 50.2893 27.9109 50.4116 27.6262C50.5339 27.3415 50.5982 27.0353 50.6009 26.7255C50.6036 26.4157 50.5446 26.1084 50.4273 25.8217C50.3099 25.5349 50.1367 25.2744 49.9176 25.0553C49.6985 24.8362 49.438 24.663 49.1512 24.5457C48.8645 24.4283 48.5572 24.3693 48.2474 24.372C47.9376 24.3747 47.6314 24.4391 47.3467 24.5613C47.0621 24.6836 46.8046 24.8614 46.5893 25.0842L36.6913 34.9822L33.3897 31.6829C32.9496 31.2579 32.3602 31.0227 31.7484 31.028C31.1366 31.0333 30.5514 31.2787 30.1188 31.7113C29.6861 32.144 29.4407 32.7292 29.4354 33.341C29.4301 33.9528 29.6653 34.5422 30.0903 34.9822L34.8737 39.7679C35.112 40.0064 35.395 40.1955 35.7065 40.3246C36.018 40.4537 36.3518 40.5201 36.689 40.5201C37.0262 40.5201 37.36 40.4537 37.6715 40.3246C37.983 40.1955 38.266 40.0064 38.5043 39.7679L49.8887 28.3836Z" fill="white"/>
</svg>
