<svg width="80" height="80" viewBox="0 0 80 80" fill="none" xmlns="http://www.w3.org/2000/svg">
<circle cx="40" cy="40" r="40" fill="#08299B"/>
<path opacity="0.15" d="M16.0833 60.2833C16.0833 60.7475 18.6031 61.1926 23.0883 61.5208C27.5736 61.849 33.6569 62.0333 40 62.0333C46.3431 62.0333 52.4264 61.849 56.9116 61.5208C61.3969 61.1926 63.9166 60.7475 63.9166 60.2833C63.9166 59.8192 61.3969 59.3741 56.9116 59.0459C52.4264 58.7177 46.3431 58.5333 40 58.5333C33.6569 58.5333 27.5736 58.7177 23.0883 59.0459C18.6031 59.3741 16.0833 59.8192 16.0833 60.2833Z" fill="#45413C"/>
<path d="M16.6667 24.7H63.3334V28.2H16.6667V24.7Z" fill="#8CA4B8"/>
<path d="M62.1667 24.7H17.8333C17.5239 24.7 17.2272 24.8229 17.0084 25.0417C16.7896 25.2605 16.6667 25.5572 16.6667 25.8666V27.0333C16.6545 27.1301 16.6545 27.2281 16.6667 27.325C16.7328 27.0683 16.8844 26.8417 17.0965 26.6827C17.3085 26.5237 17.5684 26.4416 17.8333 26.45H62.1667C62.4316 26.4416 62.6915 26.5237 62.9036 26.6827C63.1156 26.8417 63.2672 27.0683 63.3333 27.325C63.3455 27.2281 63.3455 27.1301 63.3333 27.0333V25.8666C63.3333 25.5572 63.2104 25.2605 62.9916 25.0417C62.7728 24.8229 62.4761 24.7 62.1667 24.7Z" fill="#ADC4D9"/>
<path d="M16.6667 24.7H63.3334V28.2H16.6667V24.7Z" stroke="#45413C" stroke-linecap="round" stroke-linejoin="round"/>
<path d="M17.8333 28.2H62.1666V57.9499C62.1666 58.2594 62.0437 58.5561 61.8249 58.7749C61.6061 58.9937 61.3094 59.1166 61 59.1166H19C18.6906 59.1166 18.3938 58.9937 18.175 58.7749C17.9562 58.5561 17.8333 58.2594 17.8333 57.9499V28.2Z" fill="white"/>
<path d="M17.8333 28.2H62.1666V30.825H17.8333V28.2Z" fill="#E0E0E0"/>
<path d="M17.8333 28.2H62.1666V57.95C62.1666 58.2594 62.0437 58.5561 61.8249 58.7749C61.6061 58.9937 61.3094 59.1166 61 59.1166H19C18.6906 59.1166 18.3938 58.9937 18.175 58.7749C17.9562 58.5561 17.8333 58.2594 17.8333 57.95V28.2Z" stroke="#45413C" stroke-linecap="round" stroke-linejoin="round"/>
<path d="M27.75 21.7833H52.25V59.1167H27.75V21.7833Z" fill="white"/>
<path d="M27.75 21.7833H52.25V23.8717H27.75V21.7833Z" fill="#E0E0E0"/>
<path d="M27.75 21.7833H52.25V59.1167H27.75V21.7833Z" stroke="#45413C" stroke-linecap="round" stroke-linejoin="round"/>
<path d="M33 46.2833H47V59.1167H33V46.2833Z" fill="#00B8F0"/>
<path d="M35.8467 59.1167H41.9133L47 46.785V46.2833H41.1317L35.8467 59.1167Z" fill="#4ACFFF"/>
<path d="M33 46.2833H47V59.1167H33V46.2833Z" stroke="#45413C" stroke-linecap="round" stroke-linejoin="round"/>
<path d="M31.8333 42.2H48.1666V46.2833H31.8333V42.2Z" fill="#8CA4B8"/>
<path d="M47 42.2H33C32.6906 42.2 32.3938 42.3229 32.175 42.5417C31.9562 42.7605 31.8333 43.0572 31.8333 43.3666V45.1166C31.828 45.1631 31.828 45.2101 31.8333 45.2566C31.8703 44.9742 32.0094 44.715 32.2243 44.5281C32.4392 44.3411 32.7151 44.2392 33 44.2416H47C47.2848 44.2392 47.5607 44.3411 47.7756 44.5281C47.9906 44.715 48.1296 44.9742 48.1667 45.2566C48.172 45.2101 48.172 45.1631 48.1667 45.1166V43.3666C48.1667 43.0572 48.0437 42.7605 47.8249 42.5417C47.6062 42.3229 47.3094 42.2 47 42.2Z" fill="#ADC4D9"/>
<path d="M31.8333 42.2H48.1666V46.2833H31.8333V42.2Z" stroke="#45413C" stroke-linecap="round" stroke-linejoin="round"/>
<path d="M26.5833 18.2833H53.4166V21.7833H26.5833V18.2833Z" fill="#8CA4B8"/>
<path d="M52.25 18.2833H27.75C27.4406 18.2833 27.1438 18.4062 26.925 18.625C26.7062 18.8438 26.5833 19.1406 26.5833 19.45V20.6167C26.5902 20.716 26.6098 20.814 26.6416 20.9083C26.7054 20.6614 26.8482 20.4421 27.0484 20.2841C27.2486 20.1261 27.495 20.038 27.75 20.0333H52.25C52.5149 20.0249 52.7748 20.107 52.9869 20.2661C53.1989 20.4251 53.3505 20.6516 53.4166 20.9083C53.4288 20.8115 53.4288 20.7135 53.4166 20.6167V19.45C53.4166 19.1406 53.2937 18.8438 53.0749 18.625C52.8561 18.4062 52.5594 18.2833 52.25 18.2833Z" fill="#ADC4D9"/>
<path d="M26.5833 18.2833H53.4166V21.7833H26.5833V18.2833Z" stroke="#45413C" stroke-linecap="round" stroke-linejoin="round"/>
<path d="M44.0833 29.3666H42.3333C42.1786 29.3666 42.0302 29.3052 41.9208 29.1958C41.8114 29.0864 41.75 28.938 41.75 28.7833V27.0333C41.75 26.8786 41.6885 26.7302 41.5791 26.6208C41.4697 26.5114 41.3214 26.45 41.1666 26.45H38.8333C38.6786 26.45 38.5302 26.5114 38.4208 26.6208C38.3114 26.7302 38.25 26.8786 38.25 27.0333V28.7833C38.25 28.938 38.1885 29.0864 38.0791 29.1958C37.9697 29.3052 37.8214 29.3666 37.6666 29.3666H35.9166C35.7619 29.3666 35.6136 29.4281 35.5042 29.5375C35.3948 29.6469 35.3333 29.7952 35.3333 29.95V32.2833C35.3333 32.438 35.3948 32.5864 35.5042 32.6958C35.6136 32.8052 35.7619 32.8666 35.9166 32.8666H37.6666C37.8214 32.8666 37.9697 32.9281 38.0791 33.0375C38.1885 33.1469 38.25 33.2952 38.25 33.45V35.2C38.25 35.3547 38.3114 35.503 38.4208 35.6124C38.5302 35.7218 38.6786 35.7833 38.8333 35.7833H41.1666C41.3214 35.7833 41.4697 35.7218 41.5791 35.6124C41.6885 35.503 41.75 35.3547 41.75 35.2V33.45C41.75 33.2952 41.8114 33.1469 41.9208 33.0375C42.0302 32.9281 42.1786 32.8666 42.3333 32.8666H44.0833C44.238 32.8666 44.3864 32.8052 44.4958 32.6958C44.6052 32.5864 44.6666 32.438 44.6666 32.2833V29.95C44.6666 29.7952 44.6052 29.6469 44.4958 29.5375C44.3864 29.4281 44.238 29.3666 44.0833 29.3666Z" fill="#FF6242" stroke="#45413C" stroke-linecap="round" stroke-linejoin="round"/>
<path d="M21.3333 31.1166H24.25V36.3666H21.3333V31.1166Z" fill="#00B8F0"/>
<path d="M21.9167 36.3666H23.6667C23.8214 36.3666 23.9698 36.3052 24.0792 36.1958C24.1886 36.0864 24.25 35.938 24.25 35.7833V31.7C24.2467 31.5724 24.2016 31.4495 24.1217 31.35L21.5317 36.215C21.6366 36.3118 21.7739 36.3659 21.9167 36.3666Z" fill="#4ACFFF"/>
<path d="M21.3333 39.2833H24.25V44.5333H21.3333V39.2833Z" fill="#00B8F0"/>
<path d="M21.9167 44.5333H23.6667C23.8214 44.5333 23.9698 44.4718 24.0792 44.3624C24.1886 44.253 24.25 44.1046 24.25 43.9499V39.8666C24.2467 39.739 24.2016 39.6161 24.1217 39.5166L21.5317 44.3816C21.6366 44.4785 21.7739 44.5326 21.9167 44.5333Z" fill="#4ACFFF"/>
<path d="M21.3333 47.45H24.25V52.7H21.3333V47.45Z" fill="#00B8F0"/>
<path d="M21.9167 52.6999H23.6667C23.8214 52.6999 23.9698 52.6384 24.0792 52.529C24.1886 52.4196 24.25 52.2713 24.25 52.1166V48.0332C24.2467 47.9057 24.2016 47.7827 24.1217 47.6832L21.5317 52.5482C21.6366 52.6451 21.7739 52.6992 21.9167 52.6999Z" fill="#4ACFFF"/>
<path d="M21.3333 31.1166H24.25V36.3666H21.3333V31.1166ZM21.3333 39.2832H24.25V44.5332H21.3333V39.2832ZM21.3333 47.4499H24.25V52.6999H21.3333V47.4499Z" stroke="#45413C" stroke-linecap="round" stroke-linejoin="round"/>
<path d="M55.75 31.1166H58.6667V36.3666H55.75V31.1166Z" fill="#00B8F0"/>
<path d="M56.3333 36.3666H58.0833C58.238 36.3666 58.3864 36.3052 58.4958 36.1958C58.6052 36.0864 58.6666 35.938 58.6666 35.7833V31.7C58.6633 31.5724 58.6182 31.4495 58.5383 31.35L55.9483 36.215C56.0532 36.3118 56.1905 36.3659 56.3333 36.3666Z" fill="#4ACFFF"/>
<path d="M55.75 39.2833H58.6667V44.5333H55.75V39.2833Z" fill="#00B8F0"/>
<path d="M56.3333 44.5333H58.0833C58.238 44.5333 58.3864 44.4718 58.4958 44.3624C58.6052 44.253 58.6666 44.1046 58.6666 43.9499V39.8666C58.6633 39.739 58.6182 39.6161 58.5383 39.5166L55.9483 44.3816C56.0532 44.4785 56.1905 44.5326 56.3333 44.5333Z" fill="#4ACFFF"/>
<path d="M55.75 47.45H58.6667V52.7H55.75V47.45Z" fill="#00B8F0"/>
<path d="M56.3333 52.6999H58.0833C58.238 52.6999 58.3864 52.6384 58.4958 52.529C58.6052 52.4196 58.6666 52.2713 58.6666 52.1166V48.0332C58.6633 47.9057 58.6182 47.7827 58.5383 47.6832L55.9483 52.5482C56.0532 52.6451 56.1905 52.6992 56.3333 52.6999Z" fill="#4ACFFF"/>
<path d="M40 46.2832V59.1166M55.75 31.1166H58.6667V36.3666H55.75V31.1166ZM55.75 39.2832H58.6667V44.5332H55.75V39.2832ZM55.75 47.4499H58.6667V52.6999H55.75V47.4499Z" stroke="#45413C" stroke-linecap="round" stroke-linejoin="round"/>
</svg>
