<svg width="50" height="50" viewBox="0 0 50 50" fill="none" xmlns="http://www.w3.org/2000/svg">
<g id="mingcute:delete-2-line">
<g id="Group">
<path id="Vector" d="M29.75 4.16699C30.6245 4.16722 31.4768 4.44259 32.1861 4.95409C32.8954 5.4656 33.4257 6.18731 33.7021 7.01699L34.8333 10.417H41.6667C42.2192 10.417 42.7491 10.6365 43.1398 11.0272C43.5305 11.4179 43.75 11.9478 43.75 12.5003C43.75 13.0529 43.5305 13.5828 43.1398 13.9735C42.7491 14.3642 42.2192 14.5837 41.6667 14.5837L41.6604 14.7316L39.8542 40.0295C39.7414 41.6058 39.0358 43.0808 37.8792 44.1577C36.7227 45.2347 35.2011 45.8335 33.6208 45.8337H16.3792C14.7989 45.8335 13.2773 45.2347 12.1208 44.1577C10.9642 43.0808 10.2586 41.6058 10.1458 40.0295L8.33958 14.7295C8.33581 14.681 8.33373 14.6323 8.33333 14.5837C7.7808 14.5837 7.25089 14.3642 6.86019 13.9735C6.46949 13.5828 6.25 13.0529 6.25 12.5003C6.25 11.9478 6.46949 11.4179 6.86019 11.0272C7.25089 10.6365 7.7808 10.417 8.33333 10.417H15.1667L16.2979 7.01699C16.5744 6.18697 17.1051 5.46502 17.8148 4.95348C18.5245 4.44195 19.3772 4.16678 20.2521 4.16699H29.75ZM37.4937 14.5837H12.5062L14.3021 39.7316C14.3395 40.257 14.5745 40.7488 14.9599 41.1079C15.3453 41.467 15.8524 41.6667 16.3792 41.667H33.6208C34.1476 41.6667 34.6547 41.467 35.0401 41.1079C35.4255 40.7488 35.6605 40.257 35.6979 39.7316L37.4937 14.5837ZM20.8333 20.8337C21.3436 20.8337 21.8361 21.0211 22.2174 21.3601C22.5988 21.6992 22.8424 22.1665 22.9021 22.6732L22.9167 22.917V33.3337C22.9161 33.8647 22.7128 34.3754 22.3482 34.7615C21.9837 35.1476 21.4855 35.38 20.9554 35.4111C20.4253 35.4422 19.9034 35.2698 19.4962 34.9289C19.089 34.5881 18.8273 34.1047 18.7646 33.5774L18.75 33.3337V22.917C18.75 22.3645 18.9695 21.8346 19.3602 21.4439C19.7509 21.0532 20.2808 20.8337 20.8333 20.8337ZM29.1667 20.8337C29.7192 20.8337 30.2491 21.0532 30.6398 21.4439C31.0305 21.8346 31.25 22.3645 31.25 22.917V33.3337C31.25 33.8862 31.0305 34.4161 30.6398 34.8068C30.2491 35.1975 29.7192 35.417 29.1667 35.417C28.6141 35.417 28.0842 35.1975 27.6935 34.8068C27.3028 34.4161 27.0833 33.8862 27.0833 33.3337V22.917C27.0833 22.3645 27.3028 21.8346 27.6935 21.4439C28.0842 21.0532 28.6141 20.8337 29.1667 20.8337ZM29.75 8.33366H20.25L19.5562 10.417H30.4437L29.75 8.33366Z" fill="#E33629"/>
</g>
</g>
</svg>
