<svg width="50" height="50" viewBox="0 0 50 50" fill="none" xmlns="http://www.w3.org/2000/svg">
<rect width="50" height="50" fill="#F5F5F5"/>
<g id="Library/saved">
<rect width="1440" height="1024" transform="translate(-1219 -361)" fill="white"/>
<g id="Group 76">
<rect id="Rectangle 119" x="-144" y="-24" width="328" height="97" rx="15" fill="#E0E4EC"/>
<g id="Frame 74">
<path id="Vector" d="M40.0642 49.9996C37.8852 49.9996 34.8243 49.2116 30.2408 46.6513C24.6671 43.5263 20.3559 40.6412 14.8124 35.1132C9.46754 29.7728 6.86656 26.3151 3.22631 19.6923C-0.886141 12.2145 -0.185105 8.29482 0.598537 6.61958C1.53176 4.61732 2.90928 3.41976 4.68978 2.23113C5.70109 1.56867 6.77131 1.00078 7.88686 0.534685C7.99849 0.486693 8.1023 0.440934 8.19496 0.399639C8.74753 0.150752 9.58475 -0.225369 10.6452 0.176422C11.353 0.44205 11.9848 0.985584 12.9738 1.96216C15.0022 3.96218 17.7739 8.41648 18.7965 10.604C19.483 12.0784 19.9373 13.0516 19.9384 14.1431C19.9384 15.421 19.2954 16.4065 18.5151 17.4702C18.3689 17.6699 18.2238 17.8608 18.0831 18.0461C17.2336 19.1621 17.0472 19.4847 17.17 20.0606C17.4189 21.218 19.2753 24.6633 22.3262 27.7069C25.377 30.7505 28.7237 32.4893 29.8858 32.7371C30.4863 32.8654 30.8157 32.6712 31.9677 31.7918C32.1329 31.6656 32.3026 31.5351 32.4801 31.4045C33.67 30.5194 34.61 29.8933 35.858 29.8933H35.8647C36.9508 29.8933 37.8807 30.3643 39.4212 31.1411C41.4305 32.1545 46.0197 34.89 48.0323 36.9202C49.0113 37.9068 49.5572 38.5363 49.824 39.2427C50.2259 40.3064 49.8474 41.1401 49.6007 41.6981C49.5594 41.7908 49.5137 41.8923 49.4657 42.0051C48.9958 43.1184 48.4244 44.1862 47.7588 45.1948C46.5722 46.9694 45.37 48.3433 43.3629 49.2775C42.3322 49.7649 41.2043 50.0118 40.0642 49.9996Z" fill="#08299B"/>
</g>
</g>
</g>
</svg>
