<svg width="23" height="25" viewBox="0 0 23 25" fill="none" xmlns="http://www.w3.org/2000/svg">
<g id="carbon:location">
<path id="Vector" d="M11.6175 14.0625C10.9476 14.0625 10.2927 13.8334 9.73574 13.4042C9.17874 12.975 8.74462 12.3649 8.48826 11.6511C8.23191 10.9373 8.16483 10.1519 8.29552 9.39418C8.42621 8.63644 8.74879 7.94042 9.22248 7.39412C9.69616 6.84782 10.2997 6.47578 10.9567 6.32506C11.6137 6.17434 12.2947 6.25169 12.9136 6.54735C13.5325 6.843 14.0615 7.34368 14.4337 7.98606C14.8058 8.62844 15.0045 9.38367 15.0045 10.1563C15.0034 11.1919 14.6462 12.1847 14.0113 12.917C13.3763 13.6493 12.5154 14.0613 11.6175 14.0625ZM11.6175 7.8125C11.2155 7.8125 10.8226 7.94996 10.4884 8.2075C10.1542 8.46503 9.89376 8.83107 9.73994 9.25934C9.58613 9.6876 9.54589 10.1589 9.6243 10.6135C9.70271 11.0681 9.89626 11.4858 10.1805 11.8135C10.4647 12.1413 10.8268 12.3645 11.221 12.455C11.6152 12.5454 12.0238 12.499 12.3952 12.3216C12.7665 12.1442 13.0839 11.8438 13.3072 11.4584C13.5305 11.0729 13.6497 10.6198 13.6497 10.1563C13.6491 9.53484 13.4349 8.93906 13.0539 8.49966C12.6729 8.06025 12.1563 7.81312 11.6175 7.8125Z" fill="#C1C1C1"/>
<path id="Vector_2" d="M11.6175 23.4375L5.90289 15.6648C5.82349 15.5481 5.7449 15.4307 5.66715 15.3125C4.691 13.8295 4.16366 12.0181 4.16602 10.1562C4.16602 7.87705 4.95109 5.69119 6.34851 4.07955C7.74592 2.46791 9.64123 1.5625 11.6175 1.5625C13.5937 1.5625 15.489 2.46791 16.8865 4.07955C18.2839 5.69119 19.0689 7.87705 19.0689 10.1562C19.0713 12.0173 18.5442 13.8278 17.5685 15.3102L17.5678 15.3125C17.5678 15.3125 17.3646 15.6203 17.3341 15.6617L11.6175 23.4375ZM6.74829 14.3711C6.74965 14.3711 6.90681 14.6117 6.94271 14.6633L11.6175 21.0219L16.2984 14.6547C16.3282 14.6117 16.4867 14.3695 16.4873 14.3688C17.2848 13.1571 17.7157 11.6774 17.7141 10.1562C17.7141 8.29145 17.0718 6.50302 15.9285 5.18441C14.7851 3.86579 13.2344 3.125 11.6175 3.125C10.0006 3.125 8.44984 3.86579 7.3065 5.18441C6.16316 6.50302 5.52083 8.29145 5.52083 10.1562C5.51941 11.6783 5.95016 13.1589 6.74829 14.3711Z" fill="#C1C1C1"/>
</g>
</svg>
