<svg width="80" height="80" viewBox="0 0 80 80" fill="none" xmlns="http://www.w3.org/2000/svg">
<circle cx="40" cy="40" r="40" fill="#08299B"/>
<path d="M62.8572 28.6072L52.3572 39.1072C51.8641 39.6003 51.1952 39.8774 50.4978 39.8774C49.8004 39.8774 49.1316 39.6003 48.6384 39.1072C48.1453 38.6141 47.8683 37.9452 47.8683 37.2478C47.8683 36.5504 48.1453 35.8816 48.6384 35.3885L54.6562 29.375H48.0938C44.0191 29.3737 40.0595 30.7268 36.8378 33.2215C33.6161 35.7162 31.3149 39.211 30.2962 43.1563C30.2101 43.4901 30.059 43.8036 29.8516 44.079C29.6443 44.3545 29.3847 44.5863 29.0877 44.7614C28.7907 44.9365 28.4622 45.0514 28.1208 45.0995C27.7794 45.1477 27.4319 45.1281 27.0981 45.0419C26.7643 44.9557 26.4508 44.8046 26.1753 44.5973C25.8999 44.3899 25.6681 44.1303 25.493 43.8334C25.3179 43.5364 25.203 43.2078 25.1549 42.8665C25.1067 42.5251 25.1263 42.1776 25.2125 41.8438C26.5201 36.7703 29.478 32.2759 33.6204 29.0681C37.7628 25.8603 42.8545 24.1213 48.0938 24.125H54.6562L48.6428 18.105C48.1497 17.6119 47.8726 16.943 47.8726 16.2456C47.8726 15.5482 48.1497 14.8794 48.6428 14.3863C49.1359 13.8931 49.8048 13.6161 50.5022 13.6161C51.1996 13.6161 51.8684 13.8931 52.3616 14.3863L62.8616 24.8863C63.1063 25.1305 63.3004 25.4206 63.4327 25.74C63.5651 26.0595 63.6329 26.4019 63.6325 26.7476C63.6321 27.0934 63.5634 27.4357 63.4304 27.7548C63.2973 28.0739 63.1025 28.3636 62.8572 28.6072ZM54 48.625H21.625V23.25C21.625 22.5538 21.3484 21.8861 20.8562 21.3939C20.3639 20.9016 19.6962 20.625 19 20.625C18.3038 20.625 17.6361 20.9016 17.1438 21.3939C16.6516 21.8861 16.375 22.5538 16.375 23.25V49.5C16.375 50.6603 16.8359 51.7731 17.6564 52.5936C18.4769 53.4141 19.5897 53.875 20.75 53.875H54C54.6962 53.875 55.3639 53.5985 55.8562 53.1062C56.3484 52.6139 56.625 51.9462 56.625 51.25C56.625 50.5538 56.3484 49.8861 55.8562 49.3939C55.3639 48.9016 54.6962 48.625 54 48.625Z" fill="white"/>
</svg>
